<svg width="100px" height="33" viewBox="0 0 207 33" fill="none" xmlns="http://www.w3.org/2000/svg">
<path d="M11.222 32.42C9.206 32.42 7.4 31.93 5.804 30.95C4.236 29.942 2.99 28.584 2.066 26.876C1.142 25.14 0.68 23.166 0.68 20.954C0.68 18.742 1.128 16.782 2.024 15.074C2.948 13.338 4.194 11.98 5.762 11C7.33 9.992 9.108 9.488 11.096 9.488C12.188 9.488 13.238 9.67 14.246 10.034C15.282 10.37 16.206 10.846 17.018 11.462C17.83 12.05 18.46 12.708 18.908 13.436C19.384 14.136 19.622 14.85 19.622 15.578L18.362 15.662V0.92H22.688V32H18.362V26.75H19.202C19.202 27.422 18.978 28.094 18.53 28.766C18.082 29.41 17.48 30.012 16.724 30.572C15.996 31.132 15.142 31.58 14.162 31.916C13.21 32.252 12.23 32.42 11.222 32.42ZM11.81 28.682C13.126 28.682 14.288 28.346 15.296 27.674C16.304 27.002 17.088 26.092 17.648 24.944C18.236 23.768 18.53 22.438 18.53 20.954C18.53 19.47 18.236 18.154 17.648 17.006C17.088 15.83 16.304 14.906 15.296 14.234C14.288 13.562 13.126 13.226 11.81 13.226C10.494 13.226 9.332 13.562 8.324 14.234C7.316 14.906 6.518 15.83 5.93 17.006C5.37 18.154 5.09 19.47 5.09 20.954C5.09 22.438 5.37 23.768 5.93 24.944C6.518 26.092 7.316 27.002 8.324 27.674C9.332 28.346 10.494 28.682 11.81 28.682ZM37.1271 32.42C35.3071 32.42 33.6411 31.916 32.1291 30.908C30.6451 29.9 29.4551 28.528 28.5591 26.792C27.6631 25.056 27.2151 23.096 27.2151 20.912C27.2151 18.7 27.6631 16.74 28.5591 15.032C29.4831 13.296 30.7151 11.938 32.2551 10.958C33.8231 9.978 35.5731 9.488 37.5051 9.488C38.6531 9.488 39.7031 9.656 40.6551 9.992C41.6071 10.328 42.4331 10.804 43.1331 11.42C43.8611 12.008 44.4491 12.694 44.8971 13.478C45.3731 14.262 45.6671 15.102 45.7791 15.998L44.8131 15.662V9.95H49.1811V32H44.8131V26.75L45.8211 26.456C45.6531 27.212 45.3031 27.954 44.7711 28.682C44.2671 29.382 43.6091 30.012 42.7971 30.572C42.0131 31.132 41.1311 31.58 40.1511 31.916C39.1991 32.252 38.1911 32.42 37.1271 32.42ZM38.2611 28.43C39.5771 28.43 40.7391 28.108 41.7471 27.464C42.7551 26.82 43.5391 25.938 44.0991 24.818C44.6871 23.67 44.9811 22.368 44.9811 20.912C44.9811 19.484 44.6871 18.21 44.0991 17.09C43.5391 15.97 42.7551 15.088 41.7471 14.444C40.7391 13.8 39.5771 13.478 38.2611 13.478C36.9731 13.478 35.8251 13.8 34.8171 14.444C33.8371 15.088 33.0531 15.97 32.4651 17.09C31.9051 18.21 31.6251 19.484 31.6251 20.912C31.6251 22.368 31.9051 23.67 32.4651 24.818C33.0531 25.938 33.8371 26.82 34.8171 27.464C35.8251 28.108 36.9731 28.43 38.2611 28.43ZM62.5713 32.42C60.7233 32.42 59.0573 32.098 57.5733 31.454C56.0893 30.81 54.8573 29.858 53.8773 28.598L56.8173 26.078C57.6573 27.058 58.5673 27.772 59.5473 28.22C60.5553 28.64 61.6893 28.85 62.9493 28.85C63.4533 28.85 63.9153 28.794 64.3353 28.682C64.7833 28.542 65.1613 28.346 65.4693 28.094C65.8053 27.842 66.0573 27.548 66.2253 27.212C66.3933 26.848 66.4773 26.456 66.4773 26.036C66.4773 25.308 66.2113 24.72 65.6793 24.272C65.3993 24.076 64.9513 23.866 64.3353 23.642C63.7473 23.39 62.9773 23.138 62.0253 22.886C60.4013 22.466 59.0713 21.99 58.0353 21.458C56.9993 20.926 56.2013 20.324 55.6413 19.652C55.2213 19.12 54.9133 18.546 54.7173 17.93C54.5213 17.286 54.4233 16.586 54.4233 15.83C54.4233 14.906 54.6193 14.066 55.0113 13.31C55.4313 12.526 55.9913 11.854 56.6913 11.294C57.4193 10.706 58.2593 10.258 59.2113 9.95C60.1913 9.642 61.2273 9.488 62.3193 9.488C63.3553 9.488 64.3773 9.628 65.3853 9.908C66.4213 10.188 67.3733 10.594 68.2413 11.126C69.1093 11.658 69.8373 12.288 70.4253 13.016L67.9473 15.746C67.4153 15.214 66.8273 14.752 66.1833 14.36C65.5673 13.94 64.9373 13.618 64.2933 13.394C63.6493 13.17 63.0613 13.058 62.5293 13.058C61.9413 13.058 61.4093 13.114 60.9333 13.226C60.4573 13.338 60.0513 13.506 59.7153 13.73C59.4073 13.954 59.1693 14.234 59.0013 14.57C58.8333 14.906 58.7493 15.284 58.7493 15.704C58.7773 16.068 58.8613 16.418 59.0013 16.754C59.1693 17.062 59.3933 17.328 59.6733 17.552C59.9813 17.776 60.4433 18.014 61.0593 18.266C61.6753 18.518 62.4593 18.756 63.4113 18.98C64.8113 19.344 65.9593 19.75 66.8553 20.198C67.7793 20.618 68.5073 21.108 69.0393 21.668C69.5993 22.2 69.9913 22.816 70.2153 23.516C70.4393 24.216 70.5513 25 70.5513 25.868C70.5513 27.128 70.1873 28.262 69.4593 29.27C68.7593 30.25 67.8073 31.02 66.6033 31.58C65.3993 32.14 64.0553 32.42 62.5713 32.42ZM83.0469 32.42C81.4789 32.42 80.1069 32.056 78.9309 31.328C77.7829 30.6 76.8869 29.578 76.2429 28.262C75.6269 26.946 75.3189 25.378 75.3189 23.558V9.95H79.6449V22.382C79.6449 23.67 79.8409 24.79 80.2329 25.742C80.6529 26.666 81.2409 27.38 81.9969 27.884C82.7809 28.388 83.7189 28.64 84.8109 28.64C85.6229 28.64 86.3649 28.514 87.0369 28.262C87.7089 27.982 88.2829 27.604 88.7589 27.128C89.2629 26.652 89.6549 26.078 89.9349 25.406C90.2149 24.734 90.3549 24.006 90.3549 23.222V9.95H94.6809V32H90.3549V27.38L91.1109 26.876C90.7749 27.912 90.2009 28.85 89.3889 29.69C88.6049 30.53 87.6669 31.202 86.5749 31.706C85.4829 32.182 84.3069 32.42 83.0469 32.42ZM100.749 32V9.95H105.075V14.486L104.319 14.99C104.599 14.01 105.145 13.114 105.957 12.302C106.769 11.462 107.735 10.79 108.855 10.286C109.975 9.754 111.123 9.488 112.299 9.488C113.979 9.488 115.379 9.824 116.499 10.496C117.619 11.14 118.459 12.134 119.019 13.478C119.579 14.822 119.859 16.516 119.859 18.56V32H115.533V18.854C115.533 17.594 115.365 16.558 115.029 15.746C114.693 14.906 114.175 14.304 113.475 13.94C112.775 13.548 111.907 13.38 110.871 13.436C110.031 13.436 109.261 13.576 108.561 13.856C107.861 14.108 107.245 14.472 106.713 14.948C106.209 15.424 105.803 15.984 105.495 16.628C105.215 17.244 105.075 17.916 105.075 18.644V32H102.933C102.569 32 102.205 32 101.841 32C101.477 32 101.113 32 100.749 32ZM127.491 32.462C126.567 32.462 125.853 32.196 125.349 31.664C124.845 31.104 124.593 30.32 124.593 29.312C124.593 28.388 124.859 27.632 125.391 27.044C125.923 26.456 126.623 26.162 127.491 26.162C128.415 26.162 129.129 26.442 129.633 27.002C130.137 27.534 130.389 28.304 130.389 29.312C130.389 30.236 130.123 30.992 129.591 31.58C129.059 32.168 128.359 32.462 127.491 32.462ZM144.482 32.42C142.466 32.42 140.66 31.93 139.064 30.95C137.496 29.942 136.25 28.584 135.326 26.876C134.402 25.14 133.94 23.166 133.94 20.954C133.94 18.742 134.388 16.782 135.284 15.074C136.208 13.338 137.454 11.98 139.022 11C140.59 9.992 142.368 9.488 144.356 9.488C145.448 9.488 146.498 9.67 147.506 10.034C148.542 10.37 149.466 10.846 150.278 11.462C151.09 12.05 151.72 12.708 152.168 13.436C152.644 14.136 152.882 14.85 152.882 15.578L151.622 15.662V0.92H155.948V32H151.622V26.75H152.462C152.462 27.422 152.238 28.094 151.79 28.766C151.342 29.41 150.74 30.012 149.984 30.572C149.256 31.132 148.402 31.58 147.422 31.916C146.47 32.252 145.49 32.42 144.482 32.42ZM145.07 28.682C146.386 28.682 147.548 28.346 148.556 27.674C149.564 27.002 150.348 26.092 150.908 24.944C151.496 23.768 151.79 22.438 151.79 20.954C151.79 19.47 151.496 18.154 150.908 17.006C150.348 15.83 149.564 14.906 148.556 14.234C147.548 13.562 146.386 13.226 145.07 13.226C143.754 13.226 142.592 13.562 141.584 14.234C140.576 14.906 139.778 15.83 139.19 17.006C138.63 18.154 138.35 19.47 138.35 20.954C138.35 22.438 138.63 23.768 139.19 24.944C139.778 26.092 140.576 27.002 141.584 27.674C142.592 28.346 143.754 28.682 145.07 28.682ZM172.193 32.42C169.925 32.42 167.909 31.944 166.145 30.992C164.409 30.012 163.037 28.682 162.029 27.002C161.049 25.322 160.559 23.39 160.559 21.206C160.559 19.47 160.839 17.888 161.399 16.46C161.959 15.032 162.729 13.8 163.709 12.764C164.717 11.7 165.907 10.888 167.279 10.328C168.679 9.74 170.191 9.446 171.815 9.446C173.243 9.446 174.573 9.726 175.805 10.286C177.037 10.818 178.101 11.56 178.997 12.512C179.921 13.464 180.621 14.598 181.097 15.914C181.601 17.202 181.839 18.616 181.811 20.156L181.769 22.004H163.751L162.785 18.56H178.031L177.401 19.274V18.266C177.317 17.342 177.009 16.516 176.477 15.788C175.945 15.06 175.273 14.486 174.461 14.066C173.649 13.646 172.767 13.436 171.815 13.436C170.303 13.436 169.029 13.73 167.993 14.318C166.957 14.878 166.173 15.718 165.641 16.838C165.109 17.93 164.843 19.288 164.843 20.912C164.843 22.452 165.165 23.796 165.809 24.944C166.453 26.064 167.363 26.932 168.539 27.548C169.715 28.164 171.073 28.472 172.613 28.472C173.705 28.472 174.713 28.29 175.637 27.926C176.589 27.562 177.611 26.904 178.703 25.952L180.887 29.018C180.215 29.69 179.389 30.278 178.409 30.782C177.457 31.286 176.435 31.692 175.343 32C174.279 32.28 173.229 32.42 172.193 32.42ZM193.326 32L184.002 9.95H188.664L195.384 26.456L194.586 26.834L201.768 9.95H206.22L196.434 32H193.326Z" fill="black"/>
</svg>
